<svg width="215" height="36" viewBox="0 0 215 36" fill="none" xmlns="http://www.w3.org/2000/svg">
<path d="M31.9756 15.4916V28.2818H26.5177V15.7672C26.5177 12.6248 25.1946 10.8055 23.0445 10.8055C20.288 10.8055 18.7443 12.5697 18.7443 15.4916V28.2818H13.2864V15.7672C13.2864 12.6248 12.0184 10.8055 9.81319 10.8055C7.05668 10.8055 5.4579 12.5697 5.4579 15.4916V28.2818H0V15.7672C0 9.75803 3.74887 6.17456 10.0337 6.17456C12.5146 6.17456 14.7198 7.49768 16.0981 9.7029C18.193 7.44255 21.0047 6.17456 23.8714 6.17456C28.8883 6.17456 31.9756 9.64777 31.9756 15.4916Z" fill="black"/>
<path d="M55.0199 21.4457L57.2251 24.974C56.343 25.9663 53.1455 28.5023 48.2389 28.5023C41.954 28.5023 37.709 24.4778 37.709 18.3584C37.709 11.0812 42.5605 6.17456 49.8376 6.17456C54.3032 6.17456 57.2802 8.65542 57.2802 12.294C57.2802 17.4211 52.3185 20.4533 43.9387 20.4533H43.5528C44.3246 22.6585 46.2542 23.9265 48.9004 23.9265C52.5942 23.8714 54.193 21.9418 55.0199 21.4457ZM43.3874 16.0429H43.9939C48.9004 16.0429 51.8775 14.83 51.8775 12.8453C51.8775 11.5773 50.83 10.6952 49.2312 10.6952C46.1439 10.7504 43.9938 12.7902 43.3874 16.0429Z" fill="black"/>
<path d="M81.6485 6.39504V26.7381C81.6485 32.5819 77.8996 36 71.5596 36C68.9685 36 65.9364 35.0628 63.8414 33.4089L66.1569 29.4946C67.8659 30.7075 69.9057 31.4242 71.6699 31.4242C74.5367 31.4242 76.1906 29.8254 76.1906 27.124V25.0291C74.8675 26.2971 73.0482 27.0138 71.0635 27.0138C65.4402 27.0138 62.1875 23.3752 62.1875 17.2006C62.1875 10.2542 65.6607 6.11938 71.6699 6.11938C73.6546 6.11938 75.3085 7.00147 76.5214 8.3246L76.7419 6.39504H81.6485ZM76.356 16.6493C76.356 13.1209 74.9226 11.026 72.1661 11.026C69.4096 11.026 67.7005 13.2312 67.7005 17.0352C67.7005 20.4533 69.3544 22.4931 72.1661 22.4931C74.6469 22.438 76.356 20.1776 76.356 16.6493Z" fill="black"/>
<path d="M107.449 27.5099C106.512 28.1715 105.354 28.5023 104.141 28.5023C101.881 28.5023 100.503 27.0138 100.062 25.3599C98.8487 27.2343 96.5332 28.392 93.887 28.392C89.5868 28.392 87.0508 26.0766 87.0508 22.1623C87.0508 17.366 91.4612 14.4992 98.9589 14.4992H99.6205V14.1684C99.6205 12.0183 98.1871 10.7503 95.7062 10.7503C92.8946 10.7503 90.6894 12.3491 90.0829 12.6799L88.1534 9.15155C89.8624 7.66303 93.1703 6.11938 96.3127 6.11938C101.771 6.11938 105.023 8.98616 105.023 13.8376V22.7136C105.023 23.5957 105.795 23.7611 106.346 23.7611C106.512 23.7611 106.843 23.706 106.953 23.706L107.449 27.5099ZM99.6205 18.9096H98.6833C94.9895 18.9096 92.5087 19.9571 92.5087 21.7764C92.5087 23.0995 93.4459 23.8162 95.0998 23.8162C97.6909 23.8713 99.4551 21.8866 99.6205 18.9096Z" fill="black"/>
<path d="M112.961 23.265V0H118.419V22.0521C118.419 23.5406 119.026 24.1471 120.073 24.1471C120.79 24.1471 121.121 23.9817 121.452 23.9265L122.003 27.6754C121.507 27.8959 120.073 28.5575 118.089 28.5575C115.277 28.5024 112.961 27.2344 112.961 23.265Z" fill="black"/>
<path d="M143.284 21.4457L145.489 24.974C144.607 25.9663 141.41 28.5023 136.503 28.5023C130.218 28.5023 125.973 24.4778 125.973 18.3584C125.973 11.0812 130.825 6.17456 138.102 6.17456C142.567 6.17456 145.544 8.65542 145.544 12.294C145.544 17.4211 140.583 20.4533 132.203 20.4533H131.817C132.589 22.6585 134.518 23.9265 137.165 23.9265C140.858 23.8714 142.402 21.9418 143.284 21.4457ZM131.652 16.0429H132.258C137.165 16.0429 140.142 14.83 140.142 12.8453C140.142 11.5773 139.094 10.6952 137.495 10.6952C134.408 10.7504 132.203 12.7902 131.652 16.0429Z" fill="black"/>
<path d="M170.628 27.5099C169.691 28.1715 168.533 28.5023 167.32 28.5023C165.06 28.5023 163.682 27.0138 163.241 25.3599C162.028 27.2343 159.712 28.392 157.066 28.392C152.766 28.392 150.23 26.0766 150.23 22.1623C150.23 17.366 154.64 14.4992 162.138 14.4992H162.8V14.1684C162.8 12.0183 161.366 10.7503 158.885 10.7503C156.074 10.7503 153.869 12.3491 153.262 12.6799L151.333 9.15155C153.042 7.66303 156.349 6.11938 159.492 6.11938C164.95 6.11938 168.202 8.98616 168.202 13.8376V22.7136C168.202 23.5957 168.974 23.7611 169.526 23.7611C169.691 23.7611 170.022 23.706 170.132 23.706L170.628 27.5099ZM162.855 18.9096H161.862C158.169 18.9096 155.688 19.9571 155.688 21.7764C155.688 23.0995 156.625 23.8162 158.279 23.8162C160.87 23.8713 162.689 21.8866 162.855 18.9096Z" fill="black"/>
<path d="M186.23 10.8056C184.025 10.8056 182.205 12.3492 182.205 15.1057V28.2267H176.748V6.45026H182.04V8.54522C183.088 7.27722 185.182 6.22974 187.333 6.22974C189.648 6.22974 191.081 7.38748 192.019 8.37982L188.986 12.0184C188.49 11.5222 187.388 10.8056 186.23 10.8056Z" fill="black"/>
<path d="M214.732 15.4916V20.0123H208.778V15.7672C208.778 12.6248 207.235 10.8055 204.643 10.8055C201.666 10.8055 199.902 12.5697 199.902 15.4916V20.0123H193.948V15.7672C193.948 9.75803 198.083 6.17456 205.085 6.17456C211.149 6.17456 214.732 9.64777 214.732 15.4916Z" fill="black"/>
<path d="M199.847 23.0444H193.893V28.2267H199.847V23.0444Z" fill="#FF3939"/>
<path d="M214.733 23.0444H208.779V28.2267H214.733V23.0444Z" fill="#FF3939"/>
</svg>
